<?xml version="1.0" encoding="UTF-8" standalone="no"?>
<!-- Created with Inkscape (http://www.inkscape.org/) -->

<svg
   width="210mm"
   height="297mm"
   viewBox="0 0 210 297"
   version="1.1"
   id="svg1"
   xml:space="preserve"
   inkscape:version="1.4.2 (f4327f4, 2025-05-13)"
   sodipodi:docname="BitLogo.svg"
   xmlns:inkscape="http://www.inkscape.org/namespaces/inkscape"
   xmlns:sodipodi="http://sodipodi.sourceforge.net/DTD/sodipodi-0.dtd"
   xmlns="http://www.w3.org/2000/svg"
   xmlns:svg="http://www.w3.org/2000/svg"><sodipodi:namedview
     id="namedview1"
     pagecolor="#505050"
     bordercolor="#eeeeee"
     borderopacity="1"
     inkscape:showpageshadow="0"
     inkscape:pageopacity="0"
     inkscape:pagecheckerboard="0"
     inkscape:deskcolor="#505050"
     inkscape:document-units="mm"
     inkscape:zoom="0.48693448"
     inkscape:cx="349.12295"
     inkscape:cy="504.17461"
     inkscape:window-width="1920"
     inkscape:window-height="991"
     inkscape:window-x="-9"
     inkscape:window-y="-9"
     inkscape:window-maximized="1"
     inkscape:current-layer="layer1" /><defs
     id="defs1" /><g
     inkscape:label="Capa 1"
     inkscape:groupmode="layer"
     id="layer1"><g
       id="g15"
       transform="translate(-3.8035618,-5.4336537)"><path
         style="fill:#0187ea"
         d="m 124.40417,215.58424 -4.33365,-0.0497 -0.23602,-0.19589 -0.23603,-0.19588 0.17659,-0.46448 0.1766,-0.46448 1.49969,-2.34302 1.4997,-2.34303 0.50997,-0.74015 0.50998,-0.74015 2.25004,-3.79329 2.25003,-3.79328 0.17567,-0.27756 0.17566,-0.27756 0.67997,-1.20275 0.67997,-1.20275 0.56506,-0.60346 0.56506,-0.60345 11.11024,0.0281 11.11025,0.0281 0.80498,-0.24595 0.80498,-0.24595 0.28283,-0.43165 0.28283,-0.43164 -0.0991,-0.73903 -0.0991,-0.73903 -0.39496,-0.75773 -0.39495,-0.75774 -0.59373,-0.76605 -0.59373,-0.76605 -0.10144,-0.0925 -0.10143,-0.0925 -0.45204,-0.64764 -0.45204,-0.64763 -2.91869,-3.60825 -2.9187,-3.60824 -1.47761,-1.74326 -1.47761,-1.74326 v -0.35333 -0.35332 l 0.69288,-1.04907 0.69288,-1.04907 2.09275,-2.86809 2.09275,-2.8681 2.47812,-3.26027 2.47813,-3.26028 0.38477,-0.10062 0.38478,-0.10062 0.73115,0.78008 0.73115,0.78008 1.29816,1.65563 1.29816,1.65562 0.73781,1.04853 0.73782,1.04852 1.16008,1.44885 1.16008,1.44885 0.22256,0.2782 0.22256,0.2782 1.04964,1.29527 1.04964,1.29527 0.52552,0.64763 0.52552,0.64764 0.51526,0.67847 0.51526,0.67847 0.79668,0.98687 0.79667,0.98688 1.5163,1.90317 1.51631,1.90318 1.55321,1.89011 1.55322,1.89011 0.67236,0.74015 0.67237,0.74015 1.08054,1.60992 1.08055,1.60992 0.091,0.80699 0.091,0.80699 -0.42743,1.0063 -0.42742,1.0063 -1.10228,1.85039 -1.10228,1.85038 -0.61837,0.9686 -0.61837,0.96861 v 0.18788 0.18789 h -0.18504 -0.18504 v 0.17927 0.17926 l -0.80851,1.25478 -0.8085,1.25478 -2.03861,3.79329 -2.03861,3.79328 -0.52984,0.82769 -0.52983,0.82769 -0.64763,0.14471 -0.64764,0.14472 -8.14168,0.10823 -8.14169,0.10824 -3.33069,0.14063 -3.33069,0.14064 -7.10205,0.0319 -7.10204,0.0318 -0.11445,0.0421 -0.11445,0.0421 z m -77.823378,-0.59792 -11.657415,-0.10714 -0.328958,-0.15322 -0.328957,-0.15322 -0.205654,-0.38427 -0.205653,-0.38426 0.02622,-44.14195 0.02622,-44.14194 0.119087,-7.23063 0.119087,-7.23064 -0.225673,-4.5193 -0.225672,-4.51929 -0.161081,-2.389962 -0.161082,-2.389958 0.250314,-0.599084 0.250313,-0.599084 0.374346,-0.118813 0.374345,-0.118813 0.483019,-0.824209 0.483019,-0.82421 h 0.287538 0.287539 l 1.020572,-0.296688 1.020573,-0.296689 0.673251,-0.604209 0.673251,-0.604209 28.310864,0.141332 28.310865,0.141332 1.796927,0.39259 1.796928,0.39259 1.653525,0.540347 1.65353,0.540347 2.65581,1.324117 2.65581,1.324117 1.36882,0.9309 1.36882,0.930901 0.48157,0.428764 0.48156,0.428764 0.66304,0.612317 0.66305,0.61231 1.11157,1.38779 1.11158,1.38779 1.23235,1.80961 1.23236,1.8096 0.63225,1.33605 0.63225,1.33604 0.7284,1.85039 0.72841,1.85038 0.39468,1.75786 0.39469,1.75787 0.37559,2.31298 0.3756,2.31298 0.1062,2.22046 0.10619,2.22046 -0.28541,1.75786 -0.28541,1.75786 -0.20086,1.20275 -0.20086,1.20275 -0.47006,1.74305 -0.47005,1.74304 -0.37199,1.03253 -0.37198,1.03253 -0.28352,0.64764 -0.28352,0.64763 -1.03511,1.66535 -1.03512,1.66534 -1.01345,1.38779 -1.01346,1.38778 -1.49119,1.4858 -1.49118,1.48579 -0.83267,0.66063 -0.83268,0.66063 -1.98513,1.32768 -1.98513,1.32768 -0.18907,0.35328 -0.18907,0.35328 v 0.35356 0.35356 l 0.37305,0.33761 0.37305,0.3376 0.90196,0.57001 0.90195,0.57 1.04828,0.69819 1.04829,0.69819 1.33122,1.05968 1.33122,1.05967 1.501,1.57884 1.501,1.57883 0.30523,0.59026 0.30524,0.59026 0.44322,0.65312 0.44322,0.65312 0.68554,1.40625 0.68555,1.40624 0.5219,1.87781 0.52191,1.8778 0.29548,2.1265 0.29549,2.12651 -0.0224,4.81243 -0.0224,4.81244 -0.23942,1.66534 -0.23941,1.66535 -0.39852,1.62826 -0.39851,1.62825 -0.47482,1.33236 -0.47481,1.33235 -0.16553,0.17579 -0.16554,0.17578 v 0.25416 0.25415 l -0.92519,1.95166 -0.92519,1.95165 v 0.0785 0.0785 l -0.95543,1.42569 -0.95543,1.42569 -0.3861,0.47993 -0.3861,0.47993 -0.54015,0.72282 -0.54015,0.72282 -1.86535,1.85531 -1.86534,1.85532 -2.03543,1.44037 -2.03542,1.44037 -1.34235,0.7308 -1.34234,0.7308 -1.22177,0.45987 -1.221766,0.45987 -1.59925,0.37074 -1.599249,0.37074 -2.22046,0.38822 -2.22046,0.38822 -17.023527,0.0356 -17.023526,0.0356 z m 39.981054,-18.49542 4.268657,-0.16593 1.158637,-0.30023 1.158637,-0.30024 1.048448,-0.46367 1.048448,-0.46367 0.904688,-0.58054 0.904688,-0.58054 0.98744,-1.19712 0.987439,-1.19711 0.724182,-1.40425 0.72418,-1.40424 0.46646,-1.66535 0.46645,-1.66534 0.12609,-0.78691 0.1261,-0.78691 0.07,-0.50836 0.07,-0.50836 0.008,-3.15756 0.008,-3.15757 -0.28729,-1.65343 -0.28729,-1.65343 -0.3654,-1.18664 -0.3654,-1.18663 -0.872447,-1.68146 -0.872452,-1.68146 -1.318883,-1.31975 -1.318883,-1.31974 -1.182325,-0.55427 -1.182325,-0.55427 -1.295268,-0.29082 -1.295268,-0.29081 -1.202749,-0.0967 -1.20275,-0.0967 -17.301083,-0.0452 -17.301084,-0.0452 -0.401517,0.22365 -0.401518,0.22364 -0.227205,0.68844 -0.227205,0.68844 0.01325,2.0423 0.01325,2.0423 -0.152491,-0.4626 -0.152491,-0.4626 0.0034,4.53344 0.0034,4.53344 0.141253,-0.55511 0.141252,-0.55512 0.02189,0.6939 0.02189,0.69389 h -0.185038 -0.185039 l 0.0391,4.30214 0.0391,4.30214 0.112588,-2.96061 0.112589,-2.96061 0.0058,7.59282 0.0058,7.59282 0.221543,0.67128 0.221542,0.67128 0.314868,0.15009 0.314867,0.15009 4.996035,0.10596 4.996034,0.10595 9.159398,0.0325 9.159397,0.0325 z M 52.829973,173.53777 v -0.83267 l 0.08019,0.41633 0.08019,0.41634 -0.08019,0.41634 -0.08019,0.41633 z m 15.77038,-29.88135 12.212529,-0.0977 5.273593,-0.0763 5.273592,-0.0763 1.466066,-0.38546 1.466065,-0.38547 1.21699,-0.66356 1.216991,-0.66357 0.615365,-0.58482 0.615366,-0.58483 0.892025,-1.20275 0.892026,-1.20275 0.383299,-0.74015 0.3833,-0.74015 0.54888,-1.52131 0.54889,-1.52131 0.32459,-1.62434 0.32458,-1.62435 0.0107,-2.49801 0.0107,-2.49802 -0.35161,-1.85038 -0.35161,-1.85039 -0.41905,-1.23728 -0.41905,-1.23727 -0.768584,-1.316 -0.768583,-1.316 -1.050554,-1.06531 -1.050554,-1.06531 -1.170918,-0.70572 -1.170919,-0.70572 -1.327099,-0.38625 -1.327099,-0.38626 -18.775049,-0.0601 -18.775049,-0.0601 -0.502214,0.20802 -0.502214,0.20803 -0.289611,0.61031 -0.289611,0.61031 -0.02752,2.98086 -0.02752,2.98087 h -0.12314 -0.12314 l -0.02243,1.29527 -0.02243,1.29527 h 0.194814 0.194815 l -0.197188,0.23759 -0.197187,0.2376 0.04096,0.27126 0.04095,0.27126 0.144496,0.2313 0.144496,0.23129 H 52.804362 52.62227 l -0.0082,8.08961 -0.0082,8.08961 0.169995,1.64311 0.169994,1.64312 0.282349,0.43092 0.282349,0.43092 0.420894,0.0903 0.420894,0.0903 1.017711,-0.073 1.017711,-0.073 z m -15.784704,-4.81334 0.0069,-0.55511 0.0853,0.32734 0.0853,0.32734 -0.09216,0.22777 -0.09216,0.22778 z m 0.0069,-1.57282 v -0.64764 l 0.08462,0.32382 0.08462,0.32382 -0.08462,0.32381 -0.08462,0.32382 z m 83.028061,30.96615 -1.56161,-2.34074 -0.27756,-0.39621 -0.27756,-0.39621 -1.66534,-2.19851 -1.66535,-2.19851 -0.76127,-1.04944 -0.76126,-1.04945 -1.14373,-1.43925 -1.14372,-1.43926 -0.46312,-0.91391 -0.46311,-0.91391 0.12489,-0.40499 0.12489,-0.40499 1.77068,-2.40549 1.77067,-2.4055 1.57499,-1.9429 1.57498,-1.94291 1.0034,-1.20275 1.0034,-1.20274 0.45727,-0.5284 0.45727,-0.52839 0.3975,-0.58254 0.3975,-0.58255 0.55512,-0.73944 0.55511,-0.73945 0.18504,-0.20304 0.18504,-0.20304 1.4803,-1.88861 1.48031,-1.88861 1.63014,-2.07171 1.63014,-2.07172 0.77536,-0.98872 0.77536,-0.98873 1.01771,-1.26071 1.01771,-1.26071 1.61185,-2.09896 1.61186,-2.09897 0.62955,-0.84736 0.62955,-0.84737 1.28065,-1.92821 1.28066,-1.92821 0.22496,-0.51756 0.22497,-0.51756 v -0.61025 -0.61025 l -0.32382,-0.28016 -0.32381,-0.28016 -0.83268,-0.20161 -0.83267,-0.20161 -9.05335,-0.0142 -9.05336,-0.0142 -0.43193,-0.10841 -0.43193,-0.1084 -0.8592,-1.32095 -0.85921,-1.32095 -0.59583,-0.92519 -0.59582,-0.9252 -1.28694,-2.03542 -1.28694,-2.03542 -0.72543,-1.16286 -0.72542,-1.16286 -1.20275,-1.919729 -1.20275,-1.919726 -0.96741,-1.358332 -0.9674,-1.358332 -0.5479,-0.740153 -0.5479,-0.740153 -0.0575,-0.370077 -0.0575,-0.370077 21.92704,0.01012 21.92704,0.01012 0.70995,0.240832 0.70996,0.240832 1.23295,1.905877 1.23294,1.905878 1.49964,2.376613 1.49964,2.376617 1.26248,2.03542 1.26248,2.03542 0.69131,1.01771 0.69131,1.01771 1.07382,2.03543 1.07381,2.03542 -0.0111,1.29527 -0.0111,1.29526 -0.42081,0.83268 -0.42081,0.83267 -0.93067,1.38779 -0.93066,1.38778 -1.60395,2.12794 -1.60395,2.12795 -0.89855,1.29526 -0.89855,1.29527 -0.67425,0.92519 -0.67425,0.9252 -1.9446,2.59053 -1.9446,2.59054 -1.1121,1.48031 -1.1121,1.4803 -1.97899,2.79282 -1.979,2.79283 -0.32513,0.35283 -0.32513,0.35283 -0.91106,1.29526 -0.91105,1.29527 -0.7475,0.93912 -0.7475,0.93912 -0.40019,0.54119 -0.40019,0.54118 -0.61765,0.83268 -0.61765,0.83267 -1.00886,1.48031 -1.00886,1.4803 -1.5043,2.03542 -1.5043,2.03543 -1.08396,1.57282 -1.08397,1.57283 -1.28875,1.85038 -1.28875,1.85038 -1.50729,2.22046 -1.50729,2.22046 -1.06666,1.52657 -1.06665,1.52657 h -0.32288 -0.32288 z"
         id="path17" /><path
         style="fill:#1374bf"
         d="m 120.08727,216.15908 0.2313,-0.0933 0.23129,0.0933 0.2313,0.0933 h -0.46259 -0.4626 z m 12.49567,-0.0137 0.88451,-0.0695 0.78083,0.0706 0.78083,0.0706 -1.66534,-0.001 -1.66535,-0.001 z m 11.83687,-0.17636 0.32381,-0.0846 0.32382,0.0846 0.32382,0.0846 h -0.64764 -0.64763 z m -24.35112,-0.28237 -0.71247,-0.19074 0.10495,-0.52472 0.10494,-0.52471 0.99762,-1.53419 0.99762,-1.53419 0.88806,-1.38779 0.88806,-1.38779 0.99198,-1.63122 0.99198,-1.63123 -0.12452,-0.20149 -0.12453,-0.20148 0.19552,0.12083 0.19551,0.12083 0.39033,-0.66156 0.39033,-0.66157 -0.12325,-0.19942 -0.12325,-0.19942 0.24508,0.15146 0.24507,0.15147 -0.13374,-0.34853 -0.13375,-0.34854 0.13196,0.13197 0.13197,0.13196 0.25861,-0.36923 0.25861,-0.36922 -0.13182,-0.21331 -0.13183,-0.2133 0.24507,0.15146 0.24507,0.15147 -0.12184,-0.31752 -0.12185,-0.31753 0.17504,0.10818 0.17504,0.10818 0.293,-0.5666 0.293,-0.5666 -0.12867,-0.20819 -0.12867,-0.20819 0.20575,0.12716 0.20574,0.12715 0.293,-0.56659 0.293,-0.5666 -0.12867,-0.2082 -0.12867,-0.20819 0.20295,0.12542 0.20294,0.12543 0.75143,-1.28662 0.75142,-1.28662 0.47752,-0.37561 0.47752,-0.37562 -0.13518,-0.23872 -0.13517,-0.23873 0.24919,0.2313 0.24919,0.2313 11.29659,-0.013 11.29659,-0.013 -0.37008,-0.15903 -0.37007,-0.15903 h 0.27755 0.27756 l 0.36333,0.14206 0.36334,0.14205 -0.54837,0.14552 -0.54837,0.14552 -11.11025,-0.0251 -11.11024,-0.0251 -0.56506,0.60345 -0.56506,0.60346 -0.67997,1.20275 -0.67997,1.20275 -0.17566,0.27756 -0.17567,0.27756 -2.25003,3.79328 -2.25004,3.79329 -0.50998,0.74015 -0.50997,0.74015 -1.4997,2.34303 -1.49969,2.34302 -0.1766,0.46448 -0.17659,0.46448 0.24327,0.20189 0.24327,0.2019 11.35786,-0.007 11.35785,-0.007 0.55512,-0.0754 0.55511,-0.0754 3.42321,-0.10875 3.42321,-0.10875 5.08855,-0.009 5.08856,-0.009 3.10282,-0.14748 3.10283,-0.14748 0.4129,-0.34207 0.4129,-0.34208 -0.47896,0.5137 -0.47896,0.51371 -9.9757,0.18208 -9.97571,0.18209 -6.10626,0.14395 -6.10627,0.14396 -7.03145,0.0148 -7.03146,0.0148 z m 31.3861,0.0967 0.32733,-0.0853 0.22778,0.0921 0.22778,0.0922 -0.55512,-0.007 -0.55511,-0.007 z m -65.322056,-0.19355 1.063971,-0.0668 1.06397,0.0668 1.06397,0.0668 h -2.12794 -2.127941 z m 76.154836,0.0103 0.24286,-0.0972 0.1118,0.11179 0.11179,0.1118 -0.35465,-0.0146 -0.35466,-0.0146 z m -126.57778,-0.18119 0.231298,-0.0933 0.231298,0.0933 0.231298,0.0933 h -0.462596 -0.462596 z m 2.22046,-0.0113 0.601374,-0.0746 0.601375,0.0746 0.601374,0.0746 h -1.202749 -1.202749 z m 41.124768,-0.24858 -1.942902,-0.12497 6.26216,0.0549 6.262161,0.0549 0.106242,0.10624 0.106242,0.10624 -4.4255,-0.0362 -4.4255,-0.0362 z m -44.536417,-0.25864 -0.589814,-0.25652 -0.207768,-0.70769 -0.207767,-0.70769 0.06496,-1.85038 0.06496,-1.85039 0.03873,1.99836 0.03873,1.99835 0.270714,0.5235 0.270713,0.5235 0.330661,0.15387 0.330661,0.15388 11.657415,0.10786 11.657414,0.10787 -11.564895,0.031 -11.564896,0.031 z m 56.933985,0.14083 0.832673,-0.0655 2.312979,-0.37736 2.312979,-0.37735 1.08444,-0.27533 1.08444,-0.27532 0.08454,0.0845 0.08454,0.0845 -1.631576,0.37947 -1.631576,0.37947 -1.802132,0.28651 -1.802131,0.28651 -0.880924,-0.0323 -0.880924,-0.0323 z m 8.326725,-1.48557 0.277559,-0.10621 1.20275,-0.44773 1.20275,-0.44772 -0.18504,0.16752 -0.18504,0.16753 -1.08044,0.40102 -1.080432,0.40103 -0.214832,-0.0146 -0.214833,-0.0146 z m 68.950289,-0.97479 0.48938,-1.01771 1.66721,-3.05314 1.6672,-3.05313 0.80566,-1.25478 0.80567,-1.25478 v -0.17926 -0.17927 h 0.18504 0.18504 v -0.18789 -0.18788 l 0.61837,-0.96861 0.61837,-0.9686 1.10228,-1.85038 1.10228,-1.85039 0.42742,-1.0063 0.42743,-1.0063 -0.091,-0.80699 -0.091,-0.80699 -1.08055,-1.60992 -1.08054,-1.60992 -0.67237,-0.74015 -0.67236,-0.74015 -1.55322,-1.89011 -1.55321,-1.89011 -1.51631,-1.90318 -1.5163,-1.90317 -0.79667,-0.98688 -0.79668,-0.98687 -0.51526,-0.67847 -0.51526,-0.67847 -0.52552,-0.64764 -0.52552,-0.64763 -1.04964,-1.29527 -1.04964,-1.29527 -0.22256,-0.2782 -0.22256,-0.2782 -1.16008,-1.44885 -1.16008,-1.44885 -0.73782,-1.04852 -0.73781,-1.04853 -1.29816,-1.65562 -1.29816,-1.65563 -0.73115,-0.78008 -0.73115,-0.78008 -0.38478,0.10062 -0.38477,0.10062 -2.47813,3.26028 -2.47812,3.26027 -2.09275,2.8681 -2.09275,2.86809 -0.69288,1.04907 -0.69288,1.04907 v 0.35332 0.35333 l 1.47761,1.74326 1.47761,1.74326 2.9187,3.60824 2.91869,3.60825 0.45204,0.64763 0.45204,0.64764 0.10143,0.0925 0.10144,0.0925 0.59373,0.76605 0.59373,0.76605 0.40156,0.77042 0.40157,0.77042 0.0878,0.77869 0.0878,0.77868 -0.37604,0.46042 -0.37604,0.46042 -0.19971,-0.22976 -0.19972,-0.22975 0.12531,0.0914 0.1253,0.0914 0.33883,-0.30664 0.33884,-0.30664 v -0.61896 -0.61895 h -0.17923 -0.17923 l 0.11815,-0.30792 0.11816,-0.30791 -0.21436,0.13249 -0.21437,0.13248 0.12185,-0.31752 0.12184,-0.31752 -0.22107,0.13662 -0.22106,0.13663 0.0412,-0.15253 0.0412,-0.15253 -0.14251,-0.41903 -0.1425,-0.41902 -0.21797,0.12487 -0.21798,0.12487 0.13227,-0.14651 0.13227,-0.14652 -0.18781,-0.35093 -0.18782,-0.35093 -0.20434,0.1263 -0.20435,0.12629 0.11774,-0.1905 0.11773,-0.19049 -0.93167,-1.23071 -0.93168,-1.23071 -0.20377,0.12593 -0.20377,0.12594 0.1405,-0.22733 0.14049,-0.22732 -0.41636,-0.4432 -0.41636,-0.44319 -0.18673,0.11541 -0.18673,0.1154 0.13704,-0.22173 0.13704,-0.22174 -0.22193,-0.26741 -0.22194,-0.26742 -0.19266,0.11908 -0.19266,0.11907 0.11339,-0.18348 0.11339,-0.18347 -0.2825,-0.40333 -0.2825,-0.40332 -0.15959,0.0986 -0.1596,0.0986 -0.13389,-0.21664 -0.1339,-0.21665 0.21363,0.13203 0.21363,0.13203 v -0.16371 -0.1637 l -0.43006,-0.40402 -0.43007,-0.40403 -0.15471,0.14047 -0.15472,0.14048 0.14157,-0.245 0.14157,-0.245 -0.41636,-0.44319 -0.41636,-0.4432 -0.18673,0.11541 -0.18673,0.11541 0.13924,-0.22529 0.13923,-0.22529 -0.32041,-0.35405 -0.32042,-0.35406 -0.14752,0.0912 -0.14752,0.0912 -0.1339,-0.21665 -0.13389,-0.21664 0.21363,0.13203 0.21362,0.13203 v -0.16371 -0.1637 l -0.43006,-0.40402 -0.43006,-0.40403 -0.15472,0.14047 -0.15472,0.14047 0.11447,-0.20114 0.11447,-0.20114 -0.2825,-0.40333 -0.2825,-0.40333 -0.20097,0.12421 -0.20097,0.1242 0.12235,-0.19796 0.12234,-0.19796 -0.4807,-0.57128 -0.48069,-0.57128 -0.15539,0.096 -0.15539,0.096 -0.13389,-0.21665 -0.1339,-0.21664 0.21363,0.13203 0.21363,0.13203 v -0.12052 -0.12051 l -0.37008,-0.47048 -0.37007,-0.47047 v -0.39647 -0.39647 l 0.28827,-0.41157 0.28828,-0.41158 -0.11699,-0.1893 -0.11699,-0.18929 0.24505,0.0508 0.24505,0.0508 -0.0278,-0.33615 -0.0277,-0.33615 0.10634,0.10634 0.10635,0.10635 0.32721,-0.4988 0.32721,-0.49881 -0.0957,-0.1549 -0.0957,-0.15491 0.24505,0.0508 0.24505,0.0508 -0.0254,-0.32183 -0.0254,-0.32182 0.15487,0.0957 0.15486,0.0957 0.18781,-0.35093 0.18781,-0.35093 -0.13227,-0.14652 -0.13226,-0.14651 0.21549,0.12334 0.21549,0.12334 0.43099,-0.69505 0.431,-0.69505 -0.0497,-0.15253 -0.0497,-0.15253 0.16019,0.099 0.1602,0.099 0.40797,-0.55181 0.40798,-0.55181 -0.12958,-0.20967 -0.12958,-0.20966 0.19266,0.11907 0.19266,0.11907 0.22194,-0.26741 0.22193,-0.26742 -0.1222,-0.19773 -0.12221,-0.19773 0.24506,0.0508 0.24505,0.0508 2.4e-4,-0.37007 2.5e-4,-0.37008 h 0.22344 0.22345 l 0.46405,-0.62899 0.46406,-0.62899 -0.11496,-0.18601 -0.11496,-0.18602 0.1842,0.11385 0.1842,0.11384 0.40797,-0.55181 0.40798,-0.55182 -0.12958,-0.20966 -0.12958,-0.20966 0.20836,0.12877 0.20837,0.12878 0.83988,-1.16416 0.83987,-1.16416 0.56362,-0.69389 0.56363,-0.69389 h 0.44019 0.4402 l 1.06828,1.20926 1.06827,1.20926 1.49799,1.98265 1.49799,1.98265 h 0.20584 0.20584 l 0.1542,0.16844 0.1542,0.16845 -0.2313,-0.13311 -0.2313,-0.1331 v 0.1733 0.1733 l 0.24833,0.20609 0.24832,0.20609 0.15142,-0.13717 0.15142,-0.13718 -0.12861,0.22403 -0.12862,0.22403 0.51529,0.70586 0.51528,0.70587 1.7875,2.21576 1.78751,2.21576 0.94243,1.20275 0.94243,1.20275 0.87831,1.09754 0.87831,1.09754 1.94291,2.35956 1.9429,2.35955 1.20275,1.50567 1.20275,1.50566 1.0389,1.29743 1.0389,1.29742 0.6727,1.13714 0.67271,1.13713 v 0.89458 0.89458 l -0.85948,1.60765 -0.85947,1.60765 -0.22164,0.27755 -0.22165,0.27756 -1.91122,3.23817 -1.91123,3.23817 -0.87999,1.48031 -0.88,1.48031 -1.30134,2.40549 -1.30135,2.4055 -0.19406,0.27756 -0.19406,0.27756 z m -66.15929,-0.0761 0.0771,-0.0761 1.19425,-0.64793 1.19426,-0.64794 1.66843,-1.1726 1.66844,-1.1726 0.65304,-0.52836 0.65303,-0.52836 -0.79084,0.74247 -0.79084,0.74247 -1.61466,1.10523 -1.61466,1.10524 -1.06814,0.5773 -1.06814,0.5773 h -0.11919 -0.11918 z m 7.47863,-4.54985 0.33491,-0.37008 h 0.0925 0.0925 l -0.33491,0.37008 -0.33492,0.37008 h -0.0925 -0.0925 z m 1.20694,-1.75937 1.56863,-1.66685 0.37008,-0.4653 0.37008,-0.46531 0.76302,-1.0135 0.76302,-1.01349 0.69722,-1.06397 0.69723,-1.06397 h 0.0814 0.0814 l -0.41881,0.69389 -0.41881,0.69389 -0.55784,0.83268 -0.55784,0.83267 -0.205,0.18504 -0.205,0.18504 -0.76706,1.01771 -0.76705,1.01771 -1.53167,1.4803 -1.53166,1.48031 z m -77.890721,1.09632 0.01461,-0.35466 0.09719,0.24286 0.09719,0.24286 -0.111794,0.1118 -0.111794,0.11179 z m 0.354903,-42.4663 -5.66e-4,-42.45088 -0.07469,-3.23817 -0.07469,-3.23817 0.135103,1.29527 0.135102,1.29527 0.0016,-4.44092 0.0016,-4.44092 -0.133067,1.01771 -0.133066,1.01771 0.07081,-2.03542 0.07081,-2.03542 8.41e-4,-1.27985 8.42e-4,-1.27985 0.128568,0.12857 0.128568,0.12857 -0.05143,50.92655 -0.05143,50.92655 -0.07714,0.0771 -0.07714,0.0771 z m -0.316587,41.00141 0.0025,-0.92519 0.07733,0.5114 0.07733,0.5114 -0.07986,0.41379 -0.07986,0.41379 z m 83.218405,-6.59277 -0.004,-0.11642 0.92519,-1.95165 0.92519,-1.95166 v -0.25415 -0.25416 l 0.16823,-0.17578 0.16823,-0.17579 0.57395,-1.57282 0.57396,-1.57283 -0.11609,0.64763 -0.11609,0.64764 -1.0013,2.48711 -1.00131,2.48711 -0.5459,0.9361 -0.5459,0.9361 z m -47.790229,-2.70528 5.042294,-0.0523 5.042294,0.0523 5.042295,0.0523 H 73.873945 63.789356 Z m -12.952683,-0.18405 1.526566,-0.0623 1.526566,0.0623 1.526566,0.0623 h -3.053132 -3.053133 z m 5.462152,0.009 0.327339,-0.0853 0.227776,0.0922 0.227776,0.0922 -0.555115,-0.007 -0.555115,-0.007 z m 26.496127,-0.0622 2.768483,-0.16579 0.895132,-0.19197 0.895131,-0.19197 0.222191,0.0165 0.22219,0.0165 -0.925192,0.26398 -0.925192,0.26397 -2.960613,0.0772 -2.960613,0.0772 z m -28.713352,-0.3166 1.070726,-0.067 0.964695,0.0677 0.964695,0.0677 -2.035421,-7.6e-4 -2.035422,-7.6e-4 z m 26.641307,0.004 0.511399,-0.0773 0.413792,0.0798 0.413792,0.0799 -0.925191,-0.003 -0.925192,-0.003 z m 3.617268,-0.17866 0.242863,-0.0972 0.111794,0.11179 0.111794,0.1118 -0.354657,-0.0146 -0.354657,-0.0146 z m 50.87398,-0.009 0.78641,-0.0708 0.78641,0.0708 0.78641,0.0708 h -1.57282 -1.57283 z m -47.138519,-0.23459 0.277558,-0.17937 h 0.185038 0.185038 l -0.277557,0.17937 -0.277558,0.17937 h -0.185038 -0.185038 z m -40.167475,-0.78641 -0.01416,-0.41634 -0.06199,-0.32382 -0.06199,-0.32381 h 0.168666 0.168665 v 0.74015 0.74015 h -0.09252 -0.09252 z m 42.093134,0.004 0.352833,-0.23508 1.115524,-0.83267 1.115524,-0.83267 0.08256,-0.27756 0.08256,-0.27756 -0.625726,0.55512 -0.625726,0.55511 0.537171,-0.59479 0.537171,-0.5948 0.135757,0.0839 0.135756,0.0839 0.221935,-0.26741 0.221934,-0.26741 -0.137039,-0.22174 -0.137039,-0.22173 0.204344,0.12629 0.204345,0.12629 0.202879,-0.37908 0.202879,-0.37909 -0.129666,-0.2098 -0.129666,-0.2098 0.218968,0.13533 0.218967,0.13533 0.716607,-1.54079 0.716608,-1.54079 0.40991,-1.71129 0.40992,-1.71129 -0.0874,-0.45731 -0.0874,-0.45731 0.13374,0.0827 0.13374,0.0827 0.11709,-0.85423 0.11708,-0.85424 v -2.53888 -2.53889 l -0.11952,-0.87199 -0.11952,-0.87199 -0.17015,0.24479 -0.17016,0.24479 0.11958,-0.42414 0.11959,-0.42414 -0.12386,-0.73313 -0.12387,-0.73314 -0.15138,0.0936 -0.15138,0.0936 0.0894,-0.34186 0.0894,-0.34185 -0.48899,-1.46252 -0.48899,-1.46253 -0.66871,-1.20274 -0.668711,-1.20275 -1.030635,-1.08528 -1.030635,-1.08527 -0.766772,-0.52919 -0.766772,-0.52919 -0.898573,-0.36461 -0.898573,-0.36461 0.251103,-0.0101 0.251103,-0.0101 1.20878,0.5769 1.208779,0.5769 1.318883,1.31974 1.318883,1.31975 0.872452,1.68146 0.872448,1.68146 0.3654,1.18663 0.3654,1.18664 0.28729,1.65343 0.28729,1.65343 -0.008,3.15757 -0.008,3.15756 -0.07,0.50836 -0.07,0.50836 -0.1261,0.78691 -0.12609,0.78691 -0.46645,1.66534 -0.46646,1.66535 -0.716175,1.38778 -0.716176,1.38779 -0.930808,1.14948 -0.930808,1.14947 -0.783688,0.53475 -0.783687,0.53474 -0.462596,0.2162 -0.462596,0.2162 z m -41.679683,-0.3276 v -0.46259 l 0.09333,0.23129 0.09333,0.2313 -0.09333,0.2313 -0.09333,0.2313 z m -0.448103,-1.06397 -0.07065,-0.13878 0.120526,-2.49802 0.120526,-2.49801 0.03172,2.63679 0.03172,2.6368 h -0.0816 -0.0816 z m 67.056906,-2.45176 -0.004,-0.27755 0.34371,-1.29527 0.34371,-1.29527 0.0156,0.37008 0.0156,0.37007 -0.35521,1.20275 -0.35522,1.20275 z m -86.541537,-6.7539 1.92e-4,-4.81099 0.05756,2.46268 0.05756,2.46268 -0.05775,2.34831 -0.05775,2.34832 z m 142.288787,3.74703 -0.35249,-0.41634 0.41633,0.3525 0.41634,0.3525 v 0.0638 0.0638 h -0.0638 -0.0638 z m -54.92556,-0.60137 0.0944,-0.74016 0.10315,-5.45863 0.10316,-5.45863 -0.30785,-2.22046 -0.30784,-2.22046 -0.52235,-1.8778 -0.52235,-1.87781 -0.68555,-1.40624 -0.68554,-1.40625 -0.44322,-0.65312 -0.44322,-0.65312 -0.30524,-0.59026 -0.30523,-0.59026 -1.501,-1.57883 -1.501,-1.57884 -1.33122,-1.05967 -1.33122,-1.05968 -1.04829,-0.69819 -1.04828,-0.69819 -0.90195,-0.57 -0.90196,-0.57001 -0.37305,-0.3376 -0.37305,-0.33761 0.0277,-0.48018 0.0277,-0.48017 0.0767,0.50463 0.0767,0.50464 1.38063,0.88315 1.38063,0.88315 1.39325,0.97608 1.39325,0.97607 0.20344,-0.12573 0.20344,-0.12573 -0.11453,0.18531 -0.11453,0.18531 0.52173,0.49985 0.52172,0.49985 0.16559,-0.0552 0.16559,-0.0552 0.0512,0.18503 0.0512,0.18504 1.13738,1.14758 1.13738,1.14758 0.12212,-0.0755 0.12211,-0.0755 v 0.22607 0.22606 l 0.69593,0.96868 0.69593,0.96868 0.19617,-0.12124 0.19618,-0.12125 -0.13183,0.21331 -0.13183,0.2133 0.25861,0.36923 0.25862,0.36922 0.13196,-0.13196 0.13196,-0.13196 -0.13374,0.34853 -0.13375,0.34853 0.21437,-0.13248 0.21436,-0.13249 -0.12184,0.31752 -0.12185,0.31753 0.21437,-0.13249 0.21436,-0.13248 -0.12185,0.31752 -0.12184,0.31752 0.21436,-0.13248 0.21437,-0.13249 -0.12185,0.31753 -0.12184,0.31752 0.24507,-0.15146 0.24508,-0.15147 -0.12022,0.19451 -0.12021,0.19451 0.24274,0.57732 0.24274,0.57731 0.13622,-0.13622 0.13622,-0.13622 -0.1221,0.31818 -0.12209,0.31818 h 0.19903 0.19902 l -0.11815,0.30791 -0.11816,0.30791 0.24507,-0.15146 0.24508,-0.15147 -0.13482,0.21814 -0.13482,0.21815 0.12128,0.55221 0.12129,0.55222 0.12372,-0.0765 0.12372,-0.0765 0.0117,0.49119 0.0117,0.49118 0.32395,1.48031 0.32394,1.4803 0.18603,2.4055 0.18603,2.4055 -0.0186,2.12794 -0.0186,2.12794 -0.19546,2.31298 -0.19547,2.31298 -0.16311,0.64763 -0.16311,0.64764 z m 0.649,-1.12565 0.0146,-0.35466 0.0972,0.24286 0.0972,0.24286 -0.11179,0.1118 -0.11179,0.11179 z m -68.769284,-5.07314 v -4.3484 l 0.0586,2.1742 0.0586,2.1742 -0.0586,2.1742 -0.0586,2.1742 z m 48.600114,0.63222 0.0146,-0.35466 0.0972,0.24286 0.0972,0.24286 -0.1118,0.1118 -0.11179,0.11179 z m -67.864453,-4.14795 v -1.20275 l 0.07463,0.60138 0.07463,0.60137 -0.07463,0.60138 -0.07463,0.60137 z m 19.569445,0.81726 0.01461,-0.35466 0.09719,0.24286 0.09719,0.24286 -0.111794,0.1118 -0.111794,0.11179 z m 48.309608,-1.37237 v -0.4626 l 0.0933,0.2313 0.0933,0.2313 -0.0933,0.2313 -0.0933,0.23129 z m -48.614274,-4.99604 v -4.53344 l 0.05821,2.26672 0.0582,2.26672 -0.0582,2.26672 -0.05821,2.26672 z m 68.800904,2.8681 0.004,-0.74016 0.0805,0.4185 0.0805,0.41849 -0.0842,0.32166 -0.0842,0.32166 z m -88.039551,-8.41925 v -8.60428 l 0.05325,4.30214 0.05325,4.30214 -0.05325,4.30214 -0.05325,4.30215 z m 103.576311,3.88535 -0.23735,-0.38398 -0.20757,0.12829 -0.20758,0.12829 0.1415,-0.22895 0.1415,-0.22896 -1.73199,-2.56982 -1.732,-2.56982 -0.22188,0.0777 -0.22187,0.0777 0.10053,-0.26197 0.10053,-0.26198 -0.68581,-0.83694 -0.6858,-0.83693 -0.19289,0.11921 -0.19289,0.11922 0.13704,-0.22174 0.13703,-0.22173 -0.22193,-0.26742 -0.22193,-0.26741 -0.16866,0.10424 -0.16866,0.10423 0.0439,-0.15253 0.0439,-0.15253 -0.23364,-0.42152 -0.23363,-0.42152 -0.20435,0.12629 -0.20434,0.12629 0.13704,-0.22173 0.13704,-0.22174 -0.22194,-0.26741 -0.22193,-0.26741 -0.19266,0.11907 -0.19267,0.11907 0.13698,-0.22163 0.13697,-0.22162 -0.49052,-0.64311 -0.49052,-0.6431 -0.20157,0.12458 -0.20157,0.12457 0.13704,-0.22173 0.13704,-0.22174 -0.22193,-0.26741 -0.22194,-0.26741 -0.19266,0.11907 -0.19266,0.11907 0.11496,-0.18601 0.11496,-0.18601 -0.46922,-0.629 -0.46923,-0.62899 -0.18601,0.0508 -0.18602,0.0508 0.10988,-0.17779 0.10989,-0.1778 -0.7204,-1.11459 -0.72039,-1.11458 -0.11743,0.0835 -0.11743,0.0835 0.18218,-0.2161 0.18217,-0.2161 -0.22079,-0.29121 -0.2208,-0.29122 0.15761,0.13287 0.15761,0.13287 0.54425,-0.82167 0.54425,-0.82167 -0.13517,-0.21872 -0.13518,-0.21872 0.19266,0.11907 0.19267,0.11907 0.22193,-0.26741 0.22194,-0.26742 -0.13704,-0.22173 -0.13704,-0.22173 0.19874,0.12282 0.19874,0.12283 0.57247,-0.69451 0.57247,-0.69451 -0.0929,-0.24201 -0.0929,-0.24201 0.16196,0.10009 0.16195,0.10009 0.22193,-0.26741 0.22194,-0.26741 -0.13704,-0.22174 -0.13704,-0.22173 0.19266,0.11907 0.19266,0.11907 0.22194,-0.26741 0.22193,-0.26742 -0.13704,-0.22173 -0.13703,-0.22174 0.20251,0.12516 0.20251,0.12517 1.03115,-1.29236 1.03115,-1.29235 -0.0486,-0.23826 -0.0486,-0.23827 0.226,0.0445 0.22599,0.0445 1.43935,-1.77068 1.43935,-1.77068 -0.0254,-0.26098 -0.0254,-0.26098 0.15855,0.098 0.15854,0.098 0.88453,-1.14586 0.88454,-1.14586 -0.0254,-0.24739 -0.0254,-0.2474 0.13942,0.0862 0.13941,0.0862 0.32042,-0.35405 0.32041,-0.35406 -0.13923,-0.22528 -0.13924,-0.22529 0.1889,0.11674 0.1889,0.11675 0.32041,-0.35405 0.32041,-0.35406 -0.13923,-0.22529 -0.13924,-0.22528 0.20097,0.1242 0.20097,0.12421 0.2825,-0.40333 0.2825,-0.40333 -0.11339,-0.18347 -0.11339,-0.18348 0.19266,0.11908 0.19266,0.11907 0.22194,-0.26742 0.22193,-0.26741 -0.13704,-0.22173 -0.13704,-0.22174 0.20097,0.12421 0.20097,0.1242 0.2825,-0.40333 0.2825,-0.40332 -0.11339,-0.18348 -0.1134,-0.18347 0.20435,0.12629 0.20434,0.12629 0.23364,-0.42152 0.23363,-0.42151 -0.0439,-0.15254 -0.0439,-0.15253 0.18034,0.11146 0.18034,0.11145 0.23363,-0.42152 0.23363,-0.42152 -0.0439,-0.15253 -0.0439,-0.15253 0.18034,0.11145 0.18034,0.11146 0.18781,-0.35093 0.18781,-0.35093 -0.13226,-0.14651 -0.13227,-0.14652 0.21863,0.12528 0.21864,0.12528 0.2825,-0.40333 0.2825,-0.40332 -0.11339,-0.18348 -0.11339,-0.18347 0.20434,0.12629 0.20435,0.12629 0.23402,-0.42151 0.23403,-0.42152 0.007,-0.13878 0.007,-0.13878 0.15563,0.0123 0.15563,0.0123 0.2443,-0.3341 0.2443,-0.33409 -0.1047,-0.16941 -0.1047,-0.16941 0.19338,0.11952 0.19339,0.11952 0.33895,-0.50727 0.33895,-0.50726 -0.0457,-0.15254 -0.0457,-0.15253 0.17023,0.10521 0.17024,0.10521 0.14128,-0.32275 0.14129,-0.32276 -0.034,-0.15253 -0.034,-0.15253 0.18034,0.11145 0.18034,0.11146 0.23364,-0.42152 0.23363,-0.42152 -0.0439,-0.15253 -0.0439,-0.15253 0.18034,0.11145 0.18033,0.11146 0.18782,-0.35093 0.18781,-0.35093 -0.13227,-0.14652 -0.13227,-0.14651 0.22202,0.12737 0.22201,0.12736 0.18781,-0.35093 0.18781,-0.35093 -0.13226,-0.14651 -0.13227,-0.14652 0.21033,0.12015 0.21033,0.12015 0.22103,-0.26632 0.22103,-0.26632 0.0489,-0.33302 0.0489,-0.33301 0.25992,-4.8e-4 0.25991,-4.8e-4 2.5e-4,-0.3696 2.4e-4,-0.3696 h 0.2378 0.23781 l 0.16608,-0.26872 0.16608,-0.26872 -0.1089,-0.17621 -0.1089,-0.1762 0.20434,0.12629 0.20435,0.12629 0.18781,-0.35093 0.18781,-0.35093 -0.13227,-0.14651 -0.13227,-0.14652 0.21106,0.1206 0.21106,0.1206 0.32864,-0.50157 0.32863,-0.50156 v -0.22886 -0.22886 l 0.14005,0.0866 0.14005,0.0866 0.39593,-0.55603 0.39593,-0.55603 -0.13281,-0.21489 -0.13281,-0.21489 0.20434,0.12629 0.20434,0.12629 0.18782,-0.35093 0.18781,-0.35093 -0.13227,-0.14651 -0.13227,-0.14652 0.21247,0.12147 0.21247,0.12147 0.58897,-0.91783 0.58897,-0.91783 -0.13614,-0.22027 -0.13613,-0.22028 0.24507,0.15147 0.24508,0.15146 -0.12185,-0.31752 -0.12184,-0.31752 0.21206,0.13106 0.21207,0.13107 -0.10441,-0.39927 -0.10441,-0.39927 0.16778,0.1037 0.16778,0.10369 v -0.56603 -0.56604 l -0.37007,-0.37007 -0.37008,-0.37008 h 0.15636 0.15636 l 0.30623,0.33839 0.30624,0.33838 v 0.5781 0.5781 l -0.22497,0.51756 -0.22496,0.51756 -1.28066,1.92821 -1.28065,1.92821 -0.62955,0.84737 -0.62955,0.84736 -1.61186,2.09897 -1.61185,2.09896 -1.01771,1.26071 -1.01771,1.26071 -0.77536,0.98873 -0.77536,0.98872 -1.63014,2.07172 -1.63014,2.07171 -1.48031,1.88861 -1.4803,1.88861 -0.18504,0.20304 -0.18504,0.20304 -0.55511,0.73945 -0.55512,0.73944 -0.3975,0.58255 -0.3975,0.58254 -0.45727,0.52839 -0.45727,0.5284 -1.0034,1.20274 -1.0034,1.20275 -1.57498,1.94291 -1.57499,1.9429 -1.77067,2.4055 -1.77068,2.40549 -0.12489,0.40499 -0.12489,0.40499 0.46311,0.91391 0.46312,0.91391 1.14372,1.43926 1.14373,1.43925 0.76126,1.04945 0.76127,1.04944 1.66535,2.19851 1.66534,2.19851 0.27756,0.39621 0.27756,0.39621 1.56161,2.34074 1.5616,2.34075 h 0.32288 0.32288 l 1.06665,-1.52657 1.06666,-1.52657 1.50729,-2.22046 1.50729,-2.22046 1.28875,-1.85038 1.28875,-1.85038 1.0855,-1.57283 1.0855,-1.57282 1.19151,-1.61909 1.19152,-1.61908 h 0.0822 0.0822 l -0.13783,0.23129 -0.13783,0.2313 -0.38194,0.55012 -0.38195,0.55012 -0.24763,0.26585 -0.24763,0.26584 -0.49252,0.73706 -0.49252,0.73706 -0.20147,0.34234 -0.20147,0.34235 -0.33722,0.37262 -0.33722,0.37263 -0.20147,0.34962 -0.20146,0.34962 -2.63157,3.85872 -2.63156,3.85873 -0.55639,0.74016 -0.55638,0.74015 -0.18426,0.37008 -0.18426,0.37007 -0.80015,1.01772 -0.80016,1.01771 -0.45359,0.053 -0.4536,0.053 z m -84.032998,-6.21375 0.01461,-0.35465 0.09719,0.24286 0.09719,0.24286 -0.111794,0.1118 -0.111794,0.11179 z m 39.733938,-0.94365 0.242863,-0.0972 0.111794,0.1118 0.111794,0.11179 -0.354657,-0.0146 -0.354657,-0.0146 z m -16.291624,-0.19274 0.604688,-0.0749 0.505542,0.0768 0.505541,0.0768 -1.11023,-0.002 -1.11023,-0.002 z m 2.592114,-0.002 0.791304,-0.0711 0.689002,0.0723 0.689003,0.0723 -1.480307,-0.001 -1.480306,-0.001 z m 2.960613,0 0.791304,-0.0711 0.689003,0.0723 0.689002,0.0723 -1.480306,-0.001 -1.480307,-0.001 z m 3.053824,-5.1e-4 0.884516,-0.0695 0.780829,0.0706 0.78083,0.0706 -1.665345,-0.001 -1.665345,-0.001 z m 6.944919,0.01 0.242863,-0.0972 0.111794,0.11179 0.111794,0.11179 -0.354657,-0.0146 -0.354656,-0.0146 z m -1.491871,-0.18922 0.416336,-0.0802 0.416336,0.0802 0.416337,0.0802 h -0.832673 -0.832672 z m -14.059599,-0.18856 0.604688,-0.0749 0.505542,0.0768 0.505541,0.0768 -1.11023,-0.002 -1.11023,-0.002 z m 5.270278,-0.004 2.729316,-0.0565 2.729315,0.0565 2.729315,0.0566 h -5.45863 -5.458631 z m -26.453724,-0.18359 1.070726,-0.067 0.964695,0.0677 0.964695,0.0677 -2.035421,-7.6e-4 -2.035422,-7.6e-4 z m 3.327455,0.009 0.327339,-0.0853 0.227776,0.0922 0.227776,0.0921 -0.555115,-0.007 -0.555115,-0.007 z m -25.185777,-5.793 v -0.46259 l 0.09333,0.23129 0.09333,0.2313 -0.09333,0.2313 -0.09333,0.2313 z m 0.04688,-6.10626 v -3.23817 l 0.06167,1.61908 0.06167,1.61909 -0.06167,1.61908 -0.06167,1.61909 z m 117.053162,2.1506 v -0.0699 l 0.32382,-0.25395 0.32382,-0.25396 -0.25396,0.32382 -0.25395,0.32382 h -0.0699 -0.0699 z m -43.96751,-0.25393 0.13523,-0.23126 1.97826,-1.32308 1.97826,-1.32308 0.83268,-0.66063 0.83267,-0.66063 1.49118,-1.48579 1.49119,-1.4858 1.01346,-1.38778 1.01345,-1.38779 1.03512,-1.66534 1.03511,-1.66535 0.28352,-0.64763 0.28352,-0.64764 0.37198,-1.03253 0.37199,-1.03253 0.47005,-1.74304 0.47006,-1.74305 0.20086,-1.20275 0.20086,-1.20275 0.28541,-1.75786 0.28541,-1.75786 -0.10619,-2.22046 -0.1062,-2.22046 -0.3756,-2.31298 -0.37559,-2.31298 -0.39469,-1.75787 -0.39468,-1.75786 -0.72841,-1.85038 -0.7284,-1.85039 -0.63225,-1.33604 -0.63225,-1.33605 -1.23236,-1.8096 -1.23235,-1.80961 -1.11158,-1.38779 -1.11157,-1.38779 -0.66305,-0.61231 -0.66304,-0.612317 -0.48156,-0.428764 -0.48157,-0.428764 -1.36882,-0.930901 -1.36882,-0.9309 -2.65581,-1.324117 -2.65581,-1.324117 -1.66856,-0.545258 -1.668555,-0.545259 -1.689378,-0.364248 -1.689379,-0.364248 0.925192,0.09889 0.925191,0.09889 1.699508,0.45471 1.699511,0.454709 1.69966,0.656407 1.69965,0.656408 0.26496,-0.101673 0.26495,-0.101672 -0.10009,0.161952 -0.10009,0.161953 0.22926,0.183358 0.22926,0.183358 0.42749,0.131176 0.4275,0.131177 1.5154,0.933962 1.51541,0.933962 0.87998,0.639379 0.87997,0.639379 0.28161,0.04133 0.2816,0.04133 -4.8e-4,0.173441 -4.8e-4,0.173442 1.23045,1.239955 1.23046,1.23995 0.18131,-0.11205 0.18132,-0.11206 -0.1134,0.18347 -0.11339,0.18347 0.2825,0.40333 0.2825,0.40333 0.20097,-0.1242 0.20097,-0.12421 -0.13281,0.21489 -0.13281,0.21489 0.39593,0.55603 0.39592,0.55603 0.15,-0.0927 0.15,-0.0927 -0.0254,0.32183 -0.0254,0.32182 0.24505,-0.0508 0.24505,-0.0508 -0.1222,0.19773 -0.1222,0.19773 0.22193,0.26742 0.22194,0.26741 0.14318,-0.0885 0.14318,-0.0885 -0.0254,0.32183 -0.0254,0.32182 0.24505,-0.0508 0.24506,-0.0508 -0.11483,0.1858 -0.11483,0.1858 0.20288,0.37908 0.20288,0.37909 0.20434,-0.12629 0.20434,-0.1263 -0.12736,0.20608 -0.12736,0.20608 0.82047,1.62663 0.82047,1.62664 0.64991,1.75787 0.64991,1.75786 0.37065,1.57282 0.37065,1.57283 0.42599,2.22046 0.42599,2.22046 0.004,3.42321 0.004,3.42321 -0.4193,2.02328 -0.41929,2.02327 -0.37543,1.49244 -0.37542,1.49246 -0.55052,1.57283 -0.55051,1.57283 -0.89984,1.55905 -0.89984,1.55906 -1.1521,1.63232 -1.15209,1.63233 -1.57155,1.66945 -1.57156,1.66945 -1.81867,1.37 -1.81867,1.36999 -0.84366,0.49441 -0.84367,0.49442 0.12115,0.19602 0.12115,0.19602 -0.22529,-0.13923 -0.22529,-0.13924 -0.39022,0.34194 -0.39022,0.34195 z m 45.64473,-2.09376 0.8208,-1.18663 0.61752,-0.83471 0.61752,-0.83471 0.40019,-0.54118 0.40019,-0.54119 0.7475,-0.93912 0.7475,-0.93912 0.90668,-1.29527 0.90668,-1.29526 0.11606,-0.0925 0.11606,-0.0925 0.79627,-1.06397 0.79627,-1.06397 h 0.0923 0.0923 l -0.45509,0.60137 -0.45508,0.60138 -0.71986,1.01771 -0.71985,1.01771 -0.2037,0.18504 -0.2037,0.18503 -0.86111,1.20275 -0.8611,1.20275 -0.83535,1.06435 -0.83535,1.06435 v 0.0999 0.0999 l -0.36575,0.39259 -0.36575,0.39259 -0.84453,1.25876 -0.84454,1.25875 -0.21189,0.13096 -0.21189,0.13095 z m -39.42504,-1.72316 v -0.0699 l 0.32382,-0.25396 0.32382,-0.25395 -0.25396,0.32382 -0.25395,0.32381 h -0.0699 -0.0699 z m -58.053231,-4.87391 0.511399,-0.0773 0.413792,0.0798 0.413792,0.0799 -0.925191,-0.003 -0.925192,-0.003 z m -1.426099,-0.46351 -0.28805,-0.41125 0.0011,-0.28264 0.0011,-0.28265 0.287252,0.55089 0.287253,0.55089 0.220463,0.14017 0.220463,0.14017 -0.220806,0.003 -0.220805,0.003 z m 5.779206,0.27406 1.163741,-0.0659 1.056719,0.0665 1.056719,0.0666 -2.220459,-6.6e-4 -2.22046,-6.7e-4 z m 16.46116,-0.1704 0.231298,-0.0933 0.231298,0.0933 0.231298,0.0933 h -0.462596 -0.462596 z m 3.885805,-0.0159 3.191911,-0.0553 3.191912,0.0553 3.191911,0.0553 H 82.570742 76.18692 Z m -23.129791,-0.1691 0.231298,-0.0933 0.231298,0.0933 0.231298,0.0933 h -0.462596 -0.462596 z m 33.368579,0.0558 0.0771,-0.0667 1.480307,-0.0971 1.480306,-0.0972 -0.555115,0.14196 -0.555115,0.14196 -1.002291,0.0219 -1.002291,0.0219 z m -9.214321,-0.25529 1.070727,-0.067 0.964695,0.0677 0.964695,0.0677 -2.035422,-7.6e-4 -2.035421,-7.6e-4 z m 8.979168,-0.1745 0.242863,-0.0972 0.111794,0.11179 0.111794,0.1118 -0.354657,-0.0146 -0.354657,-0.0146 z m 3.515728,0 0.242863,-0.0972 0.111794,0.11179 0.111794,0.1118 -0.354657,-0.0146 -0.354657,-0.0146 z m 2.347674,-0.93862 1.295268,-0.68422 0.978786,-1.00824 0.978786,-1.00823 -0.09774,-0.2547 -0.09773,-0.25469 0.17141,0.10594 0.17141,0.10594 0.540603,-0.79022 0.540602,-0.79022 0.313917,-0.61218 0.31392,-0.61218 0.60937,-1.88584 0.60937,-1.88584 0.24169,-1.29018 0.24168,-1.29018 0.0175,-2.04051 0.0175,-2.04051 -0.12512,-1.29527 -0.12511,-1.29526 0.20086,0.74015 0.20086,0.74015 0.009,2.68306 0.009,2.68305 -0.32786,1.62435 -0.32786,1.62434 -0.54889,1.52131 -0.54888,1.52131 -0.3833,0.74015 -0.383304,0.74015 -0.892026,1.20275 -0.892025,1.20275 -0.615366,0.58483 -0.615365,0.58482 -1.218116,0.66419 -1.218116,0.66418 -0.169672,-0.005 -0.169671,-0.005 z m -42.511447,-1.15543 -0.13767,-1.57283 0.02521,-1.48031 0.02521,-1.4803 0.162879,2.22046 0.162879,2.22046 -0.05042,0.83267 -0.05042,0.83267 z m 44.269311,-0.4626 0.434586,-0.4626 h 0.09252 0.09252 l -0.434587,0.4626 -0.434586,0.4626 h -0.09252 -0.09252 z m -43.776954,-3.51573 3.24e-4,-3.51573 0.06061,1.81374 0.06061,1.81373 -0.06093,1.702 -0.06093,1.70199 z m 107.669042,1.80413 0.6405,-0.87894 1.155,-1.66534 1.155,-1.66535 0.59678,-0.74015 0.59679,-0.74015 2.01814,-2.69078 2.01813,-2.69077 0.7807,-1.10251 0.78069,-1.10251 1.67826,-2.32859 1.67825,-2.32858 0.55905,-0.63203 0.55904,-0.63203 -0.42745,0.64169 -0.42746,0.6417 -1.12688,1.48624 -1.12688,1.48625 -0.48664,0.74015 -0.48663,0.74016 -1.99473,2.71778 -1.99474,2.71779 -2.13311,2.83336 -2.13311,2.83337 -1.16392,1.61908 -1.16393,1.61909 h -0.0957 -0.0957 z m -108.225955,-5.7825 v -3.05313 l 0.06234,1.52656 0.06234,1.52657 -0.06234,1.52656 -0.06234,1.52657 z m -19.304706,0.44717 0.01461,-0.35465 0.09719,0.24286 0.09719,0.24286 -0.111794,0.1118 -0.111794,0.11179 z m 0.05788,-2.85267 v -2.49802 l 0.06473,1.24901 0.06473,1.24901 -0.06473,1.24901 -0.06473,1.24901 z m 89.145211,-0.37008 v -0.46259 l 0.0933,0.2313 0.0933,0.23129 -0.0933,0.2313 -0.0933,0.2313 z m -69.901224,-2.77557 v -2.49802 l 0.06473,1.24901 0.06473,1.24901 -0.06473,1.24901 -0.06473,1.24901 z m -0.03641,-3.42321 0.0069,-0.55512 0.0853,0.32734 0.0853,0.32734 -0.09216,0.22778 -0.09216,0.22777 z m 48.760154,-2.29239 -0.32809,-1.45971 -0.80148,-1.63968 -0.801485,-1.63968 -0.867407,-1.04798 -0.867407,-1.04797 -1.008214,-0.69439 -1.008213,-0.69438 v -0.0722 -0.0722 l 0.591533,0.33428 0.591534,0.33428 1.141897,1.12863 1.141898,1.12863 0.7796,1.33486 0.779604,1.33486 0.436,1.28188 0.43599,1.28188 0.12512,0.83433 0.12511,0.83433 h -0.069 -0.069 z m -48.760154,-0.11311 0.0069,-0.55511 0.0853,0.32733 0.0853,0.32734 -0.09216,0.22778 -0.09216,0.22778 z m -0.02146,-0.94061 0.01461,-0.35466 0.09719,0.24287 0.09719,0.24286 -0.111794,0.11179 -0.111794,0.1118 z m 0,-0.92519 0.01461,-0.35466 0.09719,0.24286 0.09719,0.24287 -0.111794,0.11179 -0.111794,0.11179 z m 123.364434,-1.57265 0.9487,-1.37255 0.57528,-1.01771 0.57529,-1.01771 -0.12922,0.4626 -0.12923,0.46259 -1.20842,1.8125 -1.20843,1.8125 -0.18633,0.11516 -0.18634,0.11516 z M 53.037097,115.62077 v -2.49801 l 0.06473,1.249 0.06473,1.24901 -0.06473,1.24901 -0.06473,1.24901 z m 44.596692,-0.23129 -0.352495,-0.41634 0.416336,0.35249 0.416336,0.3525 v 0.0638 0.0638 h -0.06384 -0.06384 z m 80.494881,-2.26672 0.01,-1.48031 0.1637,0.76874 0.16369,0.76873 -0.17335,0.71157 -0.17336,0.71157 z m -83.347214,-0.17508 -0.464416,-0.25277 -1.10841,-0.33303 -1.10841,-0.33303 -18.927788,-0.061 -18.927789,-0.061 -0.547495,0.54749 -0.547496,0.5475 v -0.13591 -0.13592 l 0.375198,-0.40273 0.375198,-0.40272 0.411215,-0.10192 0.411215,-0.10192 18.688871,0.0614 18.688871,0.0614 1.298569,0.37889 1.29857,0.37889 0.413035,0.22105 0.413035,0.22105 v 0.086 0.086 l -0.138778,-0.007 -0.138779,-0.007 z m 39.747284,-0.34582 -0.87046,-0.21926 -0.91218,-1.38778 -0.91217,-1.38779 -1.16129,-1.85039 -1.16129,-1.85038 -1.29048,-2.03542 -1.29048,-2.03542 -0.41105,-0.64764 -0.41105,-0.64763 -1.40563,-2.127941 -1.40563,-2.127941 -0.86385,-1.093475 -0.86386,-1.093475 -0.33521,-0.748719 -0.33521,-0.74872 0.0908,-0.146967 0.0908,-0.146968 20.38955,0.01291 20.38956,0.01291 2.08124,0.135666 2.08123,0.135666 0.50645,0.378118 0.50645,0.378119 0.56831,0.814831 0.56831,0.814832 1.00737,1.650198 1.00736,1.650198 0.37008,0.596481 0.37008,0.596481 1.01771,1.597696 1.01771,1.5977 1.24274,1.98433 1.24275,1.98433 1.19032,2.03543 1.19032,2.03542 0.1342,0.46259 0.1342,0.4626 -0.0862,-0.0925 -0.0862,-0.0925 -0.97198,-1.85038 -0.97198,-1.85039 -0.68989,-1.01771 -0.68988,-1.01771 -1.26248,-2.03542 -1.26248,-2.03542 -1.49964,-2.376618 -1.49964,-2.376613 -1.23294,-1.905878 -1.23295,-1.905877 -0.70996,-0.240832 -0.70995,-0.240832 -21.92704,-0.01012 -21.92704,-0.01012 0.0575,0.370077 0.0575,0.370077 0.5479,0.740153 0.5479,0.740153 0.9674,1.358332 0.96741,1.358332 1.20275,1.919726 1.20275,1.91973 0.72542,1.16286 0.72543,1.16286 1.28694,2.03542 1.28694,2.03542 0.59582,0.9252 0.59583,0.92519 0.85921,1.32095 0.8592,1.32095 0.43268,0.10859 0.43268,0.1086 9.07513,0.0142 9.07513,0.0142 0.51031,0.13648 0.51031,0.13648 -9.22964,0.0269 -9.22963,0.0269 z m -78.557253,-0.44431 0.508855,-0.0771 0.508856,0.0771 0.508855,0.0771 h -1.017711 -1.017711 z m 23.684906,0.005 0.323817,-0.0846 0.323817,0.0846 0.323817,0.0846 H 79.98021 79.332576 Z m 3.876445,-0.0101 1.609726,-0.0615 1.720964,0.0612 1.720964,0.0612 -3.33069,3.5e-4 -3.33069,3.5e-4 z m -50.135623,-6.61627 0.0037,-0.74015 0.08047,0.41849 0.08047,0.4185 -0.08421,0.32166 -0.08421,0.32166 z m 0.137029,-2.59053 -0.0568,-1.85039 -0.129562,0.9252 -0.129562,0.92519 0.09169,-2.4055 0.09169,-2.405499 0.04695,-0.05711 0.04695,-0.05711 0.131017,2.832689 0.131017,2.83268 -0.0833,0.55512 -0.0833,0.55511 z m -0.175231,-6.013748 -0.006,-0.277557 0.347076,-0.526429 0.347076,-0.526428 0.125221,0.202611 0.125221,0.202612 h -0.204892 -0.204891 l -0.261382,0.601374 -0.261382,0.601375 z m 1.019266,-1.428407 -0.122096,-0.318177 0.131962,0.131962 0.131961,0.131961 0.258615,-0.369224 0.258615,-0.369224 -0.132906,-0.230973 -0.132905,-0.230974 0.153429,0.139183 0.153429,0.139182 0.323574,-0.29283 0.323574,-0.292831 0.431595,0.08219 0.431596,0.08219 -0.501055,0.0252 -0.501056,0.0252 -0.487978,0.832673 -0.487979,0.832672 h -0.05514 -0.05514 z m 3.275566,-1.932695 0.510008,-0.186234 -0.103282,-0.167115 -0.103283,-0.167115 0.287168,0.110197 0.287168,0.110197 0.02191,-0.251095 0.02191,-0.251095 -0.03733,-0.185039 -0.03733,-0.185038 0.137173,0.137173 0.137173,0.137174 0.246286,-0.204399 0.246286,-0.204399 -0.07304,-0.117813 -0.07304,-0.117813 4.192176,0.09213 4.192176,0.09213 -3.973436,0.05045 -3.973436,0.05045 -0.560003,0.529111 -0.560003,0.529111 -0.404171,0.207242 -0.404172,0.207242 -0.243463,-0.01461 -0.243462,-0.01461 z m 56.523929,-1.028327 0.597248,-0.07432 0.698021,0.07283 0.698021,0.07283 -1.295269,0.0015 -1.295268,0.0015 z m -41.15864,-0.190021 3.292691,-0.05512 -0.1117,-0.180735 -0.1117,-0.180735 1.16741,0.02779 1.16741,0.02779 -0.832673,0.130817 -0.832672,0.130816 13.468543,0.0201 13.468544,0.02009 -0.135044,-0.224963 -0.135044,-0.224963 0.266817,0.211674 0.266818,0.211673 4.435291,0.02942 4.435292,0.02942 0.08273,0.08273 0.08273,0.08273 -21.634064,-0.04171 -21.634065,-0.04171 z m 0.641531,-0.362417 0.418494,-0.08047 0.321659,0.08421 0.32166,0.08421 -0.740153,-0.0037 -0.740154,-0.0037 z m 1.859791,0.0045 0.242863,-0.09718 0.111794,0.111794 0.111794,0.111794 -0.354657,-0.01461 -0.354657,-0.01461 z m 3.145651,0 0.242863,-0.09718 0.111794,0.111794 0.111794,0.111794 -0.354657,-0.01461 -0.354656,-0.01461 z m 1.006146,-0.0011 0.323817,-0.08462 0.323817,0.08462 0.323818,0.08462 H 59.99607 59.348436 Z m 33.676976,0 0.323817,-0.08462 0.323817,0.08462 0.323817,0.08462 h -0.647634 -0.647634 z m 28.958501,0.005 0.2313,-0.09333 0.23129,0.09333 0.2313,0.09333 h -0.46259 -0.4626 z m 1.20275,-0.01 0.50885,-0.07708 0.50886,0.07708 0.50885,0.07708 h -1.01771 -1.01771 z m 4.07084,0.005 0.32382,-0.08462 0.32381,0.08462 0.32382,0.08462 h -0.64763 -0.64764 z m 1.48031,0 0.32381,-0.08462 0.32382,0.08462 0.32382,0.08462 h -0.64764 -0.64763 z m 1.20275,0.005 0.23129,-0.09333 0.2313,0.09333 0.2313,0.09333 h -0.4626 -0.46259 z m 0.93675,-0.0039 0.24286,-0.09718 0.1118,0.111794 0.11179,0.111794 -0.35465,-0.01461 -0.35466,-0.01461 z m 1.2886,-0.0093 0.7913,-0.07107 0.689,0.07229 0.68901,0.07229 -1.48031,-0.0012 -1.48031,-0.0012 z m 3.14565,0 0.7913,-0.07107 0.689,0.07229 0.68901,0.07229 -1.48031,-0.0012 -1.48031,-0.0012 z m 3.69587,-0.0019 1.52657,-0.06234 1.52657,0.06234 1.52656,0.06234 h -3.05313 -3.05313 z m -98.243784,-0.173774 0.242863,-0.09719 0.111794,0.111794 0.111794,0.111794 -0.354657,-0.01461 -0.354657,-0.01461 z"
         id="path16" /><path
         style="fill:#1b344a"
         d="m 119.97902,216.10515 -0.80214,-0.13014 -0.16509,-0.26303 -0.16508,-0.26303 0.11235,-0.37008 0.11236,-0.37007 0.83239,-1.38779 0.83239,-1.38779 0.96217,-1.38778 0.96216,-1.38779 1.75215,-2.77558 1.75214,-2.77557 1.88456,-3.33069 1.88457,-3.33069 0.44888,-0.55512 0.44889,-0.55511 h 11.83891 11.83892 l 0.38063,-0.34345 0.38063,-0.34344 0.0714,-0.67427 0.0714,-0.67426 0.0311,0.66164 0.0311,0.66163 -0.47742,0.4486 -0.47743,0.44859 h -11.59632 -11.59633 l -0.52276,0.4593 -0.52275,0.45931 -1.30695,2.22375 -1.30695,2.22375 -1.75995,2.96061 -1.75996,2.96061 -1.29266,2.03543 -1.29267,2.03542 -0.9988,1.53419 -0.99879,1.53419 -0.10421,0.52103 -0.1042,0.52103 0.85642,0.21565 0.85642,0.21565 6.88677,-0.0361 6.88676,-0.0361 6.10627,-0.14386 6.10626,-0.14386 9.96384,-0.18188 9.96383,-0.18188 0.34994,-0.31669 0.34994,-0.31669 0.52729,-0.85217 0.52729,-0.85217 1.35179,-2.49801 1.3518,-2.49802 0.77543,-1.29527 0.77543,-1.29527 1.91015,-3.23817 1.91015,-3.23817 0.22165,-0.27756 0.22164,-0.27755 0.85947,-1.60765 0.85948,-1.60765 v -0.89458 -0.89458 l -0.67271,-1.13713 -0.6727,-1.13714 -1.0389,-1.29742 -1.0389,-1.29743 -1.20275,-1.50566 -1.20275,-1.50567 -1.9429,-2.35955 -1.94291,-2.35956 -0.87831,-1.09754 -0.87831,-1.09754 -0.94243,-1.20275 -0.94243,-1.20275 -1.78696,-2.21984 -1.78696,-2.21983 -1.0461,-1.38841 -1.0461,-1.38842 -1.35994,-1.79061 -1.35995,-1.79061 -1.07592,-1.21626 -1.07592,-1.21626 h -0.4402 -0.44019 l -0.56415,0.69389 -0.56415,0.69389 -3.64055,4.8875 -3.64054,4.88749 -1.17186,1.76498 -1.17187,1.76498 v 0.40029 0.40029 l 0.41051,0.53381 0.4105,0.53381 2.14785,2.59053 2.14785,2.59054 2.45168,3.05313 2.45167,3.05314 0.81301,1.21911 0.81301,1.21911 0.11502,0.35371 0.11501,0.35372 -0.53765,-0.87912 -0.53764,-0.87911 -1.93094,-2.44218 -1.93095,-2.44217 -2.59053,-3.15558 -2.59054,-3.15558 -0.97145,-1.16557 -0.97145,-1.16557 -0.0213,-0.22169 -0.0213,-0.22169 0.0389,-0.35905 0.0389,-0.35904 1.1162,-1.67145 1.1162,-1.67145 1.23969,-1.67027 1.23968,-1.67027 1.84051,-2.49802 1.84051,-2.49802 0.95109,-1.29527 0.95108,-1.29527 0.47135,-0.44178 0.47134,-0.44179 0.56212,0.23284 0.56211,0.23284 3.26995,4.35842 3.26995,4.35841 1.77556,2.14184 1.77555,2.14183 1.84742,2.29948 1.84741,2.29947 1.61994,2.01593 1.61993,2.01593 2.27981,2.71605 2.27981,2.71605 0.60429,0.89051 0.60429,0.89051 0.55304,1.21971 0.55304,1.21971 -0.20767,0.82475 -0.20768,0.82476 -1.07391,1.87602 -1.0739,1.87603 -2.67525,4.44092 -2.67524,4.44092 -1.56285,2.92643 -1.56284,2.92644 -0.4627,0.5583 -0.4627,0.5583 -0.92509,0.17338 -0.92509,0.17339 -9.06687,0.18489 -9.06688,0.1849 -9.62199,0.17589 -9.622,0.17589 -3.79328,-0.0175 -3.79329,-0.0175 z m -84.636113,-0.73675 -1.060776,-0.10838 -0.403802,-0.4038 -0.403803,-0.4038 0.03503,-47.04567 0.03503,-47.04566 0.09562,-0.0956 0.09562,-0.0956 -0.02342,46.92825 -0.02342,46.92824 0.199443,0.37267 0.199443,0.37266 0.602796,0.18993 0.602795,0.18994 28.495902,0.0399 28.495903,0.0399 2.274653,-0.39895 2.274653,-0.39895 1.859102,-0.48009 1.859104,-0.48009 0.67724,-0.2728 0.67724,-0.27281 1.01771,-0.47893 1.01771,-0.47894 1.57283,-1.01515 1.57282,-1.01515 1.08606,-0.83506 1.08606,-0.83506 1.71435,-1.63893 1.71435,-1.63893 0.79777,-1.06257 0.79777,-1.06257 0.205,-0.18504 0.205,-0.18504 0.56593,-0.83267 0.56593,-0.83268 0.94483,-1.6802 0.94483,-1.68021 0.9302,-2.28478 0.9302,-2.28479 0.47348,-1.7712 0.47348,-1.77119 0.25414,-1.3179 0.25415,-1.3179 0.20452,-2.56791 0.20453,-2.5679 0.0488,-1.57283 0.0488,-1.57282 0.0377,3.53775 0.0377,3.53774 -0.28323,1.64333 -0.28324,1.64332 -0.7381,2.65598 -0.7381,2.65597 -1.07296,2.34006 -1.07296,2.34006 -0.78961,1.29527 -0.78962,1.29527 -1.04815,1.47088 -1.04816,1.47088 -2.03545,2.04485 -2.03546,2.04484 -1.48027,1.12024 -1.48027,1.12024 -1.60633,0.96616 -1.60632,0.96615 -1.37201,0.62525 -1.37202,0.62524 -1.370061,0.38019 -1.370063,0.38019 -2.22046,0.4239 -2.22046,0.4239 -28.588422,0.0139 -28.588421,0.0139 z m 21.69255,-19.08321 -3.423209,-0.10971 -0.05084,-0.0315 -0.05084,-0.0315 -0.196535,-0.50886 -0.196535,-0.50885 -0.09613,-14.7699 -0.09613,-14.76989 0.128622,-1.02945 0.128622,-1.02945 0.467014,-0.46702 0.467014,-0.46701 17.724439,0.12397 17.724438,0.12397 1.393934,0.17674 1.393933,0.17673 1.16875,0.39057 1.168749,0.39057 0.868248,0.55315 0.868247,0.55315 1.176002,1.24663 1.176002,1.24662 0.769492,1.56278 0.769496,1.56278 0.38222,1.40789 0.38222,1.4079 0.27325,1.55271 0.27326,1.55272 -0.003,2.68306 -0.003,2.68305 -0.2649,1.61595 -0.2649,1.61595 -0.30345,1.25215 -0.30344,1.25214 -0.799183,1.66811 -0.799178,1.66812 -0.828468,1.12539 -0.828468,1.12539 -1.276549,0.84865 -1.27655,0.84865 -1.011406,0.36865 -1.011407,0.36864 -1.01771,0.19882 -1.017711,0.19882 -3.423209,0.1876 -3.423209,0.18759 -11.657415,-0.0464 -11.657415,-0.0464 z m 33.664632,-0.52883 1.375443,-0.22767 1.436236,-0.52416 1.436236,-0.52417 1.03303,-0.68568 1.033031,-0.68569 0.623306,-0.76499 0.623307,-0.76499 0.657992,-1.20275 0.657992,-1.20275 0.487208,-1.29523 0.48721,-1.29523 0.39276,-1.7579 0.39276,-1.75791 0.005,-3.70076 0.005,-3.70077 -0.24059,-1.11023 -0.24059,-1.11023 -0.46346,-1.46603 -0.463464,-1.46604 -0.47512,-0.93946 -0.47512,-0.93947 -0.702341,-1.03585 -0.702341,-1.03586 -0.906192,-0.81474 -0.906191,-0.81475 -1.023598,-0.51789 -1.023598,-0.5179 -1.736914,-0.39063 -1.736914,-0.39063 -17.957726,-0.0763 -17.957726,-0.0763 -0.453588,0.36729 -0.453587,0.36729 v 15.738 15.738 l 0.329587,0.33042 0.329587,0.33043 2.075911,0.11093 2.075911,0.11093 15.54322,-0.0364 15.543219,-0.0364 z m 30.662431,-18.47156 -0.11469,-0.6939 -0.003,-1.11023 -0.003,-1.11023 -0.27321,-1.66534 -0.27321,-1.66535 -0.45913,-1.65699 -0.45913,-1.657 0.0723,-0.0723 0.0723,-0.0723 0.39241,1.31765 0.39241,1.31764 0.347,1.61444 0.34699,1.61443 0.13016,2.26672 0.13015,2.26672 h -0.0921 -0.0921 z m 13.75341,-9.25047 -2.12224,-3.09793 -2.77557,-3.66586 -2.77558,-3.66585 -1.10098,-1.56216 -1.10098,-1.56216 v -0.62739 -0.62739 l 0.68649,-0.99247 0.68649,-0.99247 2.26487,-2.89869 2.26488,-2.89868 4.07084,-5.07695 4.07084,-5.07694 4.01261,-5.06957 4.01261,-5.06957 1.27826,-1.62724 1.27826,-1.62724 1.95371,-2.72116 1.95371,-2.72116 0.48077,-0.9065 0.48077,-0.90649 v -0.52104 -0.52105 l -0.41633,-0.23781 -0.41634,-0.2378 -9.89955,-0.0925 -9.89955,-0.0925 -0.39215,-0.22487 -0.39216,-0.22487 -1.20146,-1.90307 -1.20145,-1.90307 -2.91717,-4.62596 -2.91716,-4.62596 -0.93591,-1.387788 -0.9359,-1.387787 -1.09736,-1.387788 -1.09736,-1.387787 -0.29515,-0.611343 -0.29514,-0.611344 0.17966,-0.284812 0.17965,-0.284813 21.74016,0.02086 21.74015,0.02086 0.92519,0.114045 0.92519,0.114044 0.51078,0.258143 0.51079,0.258142 0.62058,0.965703 0.62058,0.965703 1.25731,2.035422 1.25731,2.035422 1.57667,2.498018 1.57668,2.49802 1.6368,2.53504 1.63679,2.53505 0.68916,1.44328 0.68916,1.44328 -0.019,1.20275 -0.019,1.20275 -0.36576,0.93506 -0.36575,0.93507 -0.7607,1.10036 -0.7607,1.10035 -1.4451,1.97641 -1.44511,1.97642 -2.39549,3.29718 -2.3955,3.29717 -2.8959,3.88581 -2.8959,3.8858 -1.88733,2.59054 -1.88733,2.59054 -1.98067,2.67285 -1.98067,2.67286 -2.31298,3.18442 -2.31298,3.18441 -1.93052,2.74701 -1.93052,2.74701 -0.81449,1.10318 -0.81449,1.10319 -2.42192,3.61529 -2.42193,3.6153 -0.98691,1.34152 -0.98691,1.34153 h -0.51323 -0.51323 z m 3.84099,1.61764 0.80015,-1.01772 0.18426,-0.37007 0.18426,-0.37008 0.55638,-0.74015 0.55639,-0.74016 2.63156,-3.85873 2.63157,-3.85872 0.20146,-0.34962 0.20147,-0.34962 0.33722,-0.37263 0.33722,-0.37262 0.20147,-0.34235 0.20147,-0.34234 0.49252,-0.73706 0.49252,-0.73706 0.24871,-0.26085 0.24871,-0.26085 1.07854,-1.57282 1.07853,-1.57283 0.90339,-1.2803 0.90339,-1.2803 0.37623,-0.43271 0.37624,-0.43271 v -0.0874 -0.0874 l 0.75653,-0.97521 0.75653,-0.9752 0.82311,-1.11023 0.82312,-1.11023 0.444,-0.55511 0.444,-0.55512 3.02563,-4.16336 3.02563,-4.16336 1.38081,-1.81844 1.3808,-1.81843 1.99474,-2.71501 1.99473,-2.715 0.48853,-0.74016 0.48853,-0.74015 1.08214,-1.4188 1.08214,-1.41879 0.63301,-0.89418 0.63302,-0.89419 1.20729,-1.78297 1.2073,-1.78297 0.32106,-1.15481 0.32107,-1.1548 -0.32031,-1.22125 -0.3203,-1.22124 -1.20312,-2.03976 -1.20311,-2.03977 -1.24275,-1.98433 -1.24274,-1.98433 -1.01771,-1.5977 -1.01771,-1.597692 -0.37008,-0.596481 -0.37008,-0.596481 -1.00736,-1.650198 -1.00737,-1.650198 -0.56831,-0.814832 -0.56831,-0.814831 -0.50645,-0.378119 -0.50645,-0.378118 -2.08123,-0.135666 -2.08124,-0.135666 -20.38956,-0.01291 -20.38955,-0.01291 -0.0908,0.146968 -0.0908,0.146967 0.33521,0.74872 0.33521,0.748719 0.86386,1.093475 0.86385,1.093475 1.40563,2.127941 1.40563,2.127937 0.41105,0.64763 0.41105,0.64764 1.29048,2.03542 1.29048,2.03542 1.16256,1.85038 1.16257,1.85039 0.92593,1.41459 0.92593,1.4146 1.0928,0.215 1.0928,0.21499 9.01454,-0.0457 9.01454,-0.0457 0.41415,0.22556 0.41415,0.22556 0.11898,0.47402 0.11897,0.47401 -0.2197,0.73328 -0.21969,0.73328 -1.16213,1.70171 -1.16213,1.70172 -1.45452,1.9429 -1.45452,1.94291 -4.176,5.27359 -4.17599,5.27359 -2.80594,3.60825 -2.80594,3.60825 -1.44707,1.77966 -1.44706,1.77967 -1.77222,2.19866 -1.77223,2.19865 -0.81831,1.07979 -0.81832,1.07979 -0.9602,1.3752 -0.96021,1.37521 0.0793,0.4131 0.0793,0.4131 1.21347,1.75787 1.21348,1.75786 1.19748,1.57283 1.19748,1.57282 1.29178,1.60719 1.29178,1.6072 v 0.11763 0.11763 l 0.2313,0.23267 0.2313,0.23267 1.9429,2.90219 1.9429,2.90218 0.4536,-0.0487 0.45359,-0.0487 z m -20.01272,-3.82284 -0.72423,-1.57403 -1.16115,-1.62315 -1.16115,-1.62316 -1.72162,-1.62311 -1.72161,-1.62311 -1.6146,-1.13302 -1.6146,-1.13302 -1.39228,-0.89085 -1.39227,-0.89085 v -0.51452 -0.51451 l 0.35842,-0.32437 0.35841,-0.32436 0.22529,0.13924 0.22529,0.13923 -0.12115,-0.19602 -0.12115,-0.19602 0.84367,-0.49442 0.84366,-0.49442 1.81867,-1.36999 1.81867,-1.36999 1.57156,-1.66945 1.57155,-1.66945 1.15209,-1.63233 1.1521,-1.63232 0.89984,-1.55906 0.89984,-1.55906 0.55051,-1.57283 0.55052,-1.57282 0.37542,-1.49246 0.37543,-1.49245 0.41929,-2.02327 0.4193,-2.02328 -0.004,-3.42321 -0.004,-3.42321 -0.42349,-2.22046 -0.4235,-2.22046 -0.44031,-1.79459 -0.4403,-1.7946 -0.76066,-1.9455 -0.76065,-1.94551 -0.9267,-1.70553 -0.9267,-1.70552 -1.54547,-2.14095 -1.54548,-2.14094 -1.44857,-1.40425 -1.44857,-1.404243 -0.92519,-0.652654 -0.92519,-0.652655 -1.51541,-0.933962 -1.5154,-0.933962 -0.4275,-0.131177 -0.42749,-0.131176 -0.247,-0.198074 -0.24699,-0.198074 -1.86069,-0.702099 -1.86069,-0.702099 -1.31553,-0.368794 -1.315522,-0.368795 -1.01771,-0.196676 -1.017711,-0.196676 -2.498018,-0.179299 -2.498017,-0.179299 -17.565271,0.0043 -17.565271,0.0043 0.140708,-0.140707 0.140707,-0.140708 17.887159,-0.01966 17.88716,-0.01966 2.035421,0.144827 2.035422,0.144827 1.942902,0.404271 1.942901,0.404271 1.29527,0.464679 1.29527,0.464679 2.78955,1.366518 2.78956,1.366519 1.95172,1.563596 1.95172,1.563597 1.09708,1.197275 1.09709,1.19728 1.47065,2.09163 1.47066,2.09162 1.12766,2.23867 1.12767,2.23866 0.56522,1.56207 0.56523,1.56208 0.47315,2.12373 0.47315,2.12373 0.37723,2.59054 0.37723,2.59053 0.001,1.60068 10e-4,1.60069 -0.37726,2.53848 -0.37726,2.53848 -0.27461,1.31947 -0.2746,1.31946 -0.47249,1.48031 -0.47248,1.48031 -0.80329,1.70416 -0.80329,1.70417 -1.11679,1.62652 -1.11678,1.62653 -1.24567,1.55305 -1.24567,1.55304 -1.52509,1.29188 -1.5251,1.29188 -2.28023,1.59819 -2.28024,1.5982 v 0.36787 0.36788 l 0.92519,0.59016 0.92519,0.59016 1.4963,1.03166 1.49631,1.03165 1.84569,1.63783 1.84569,1.63783 1.14194,1.41953 1.14195,1.41952 1.05417,2.11861 1.05418,2.1186 -0.0807,0.0807 -0.0807,0.0807 z m -65.313741,-22.36831 -0.326762,-0.32676 -0.175025,-0.46035 -0.175024,-0.46035 0.04276,-11.95477 0.04276,-11.95476 0.101505,-2.74598 0.101505,-2.74597 0.526832,-0.45252 0.526831,-0.45253 18.902193,0.0605 18.902193,0.0605 1.017711,0.31033 1.017711,0.31032 0.740153,0.31969 0.740154,0.31968 1.06257,0.72967 1.062571,0.72967 0.855005,1.03814 0.855005,1.03814 0.738633,1.46854 0.73863,1.46854 0.42533,1.67712 0.42534,1.67711 0.22285,1.85038 0.22285,1.85038 -0.12592,1.75787 -0.12592,1.75786 -0.25311,1.20275 -0.25311,1.20275 -0.55765,1.70238 -0.55766,1.70237 -0.372201,0.72958 -0.3722,0.72957 -1.131313,1.50136 -1.131313,1.50137 -0.771675,0.52897 -0.771674,0.52897 -0.92829,0.46874 -0.928291,0.46873 -0.75259,0.20265 -0.75259,0.20265 -1.834848,0.17602 -1.834848,0.17601 -13.415278,0.1045 -13.415279,0.10451 -3.990876,0.11119 -3.990875,0.11119 z m 23.574176,-0.35507 11.934972,-0.0874 1.7104,-0.18935 1.7104,-0.18934 1.323906,-0.46255 1.323906,-0.46254 0.870084,-0.55833 0.870084,-0.55833 0.800388,-0.94922 0.800389,-0.94921 0.796885,-1.39835 0.796881,-1.39835 0.5596,-1.67973 0.5596,-1.67972 0.27605,-1.56859 0.27605,-1.56859 -4.9e-4,-1.9429 -5e-4,-1.94291 -0.27183,-1.676 -0.27184,-1.676 -0.39629,-1.28461 -0.3963,-1.28461 -0.518141,-1.01771 -0.518144,-1.01771 -0.760404,-1.01772 -0.760404,-1.01771 -0.966931,-0.81438 -0.966931,-0.81439 -0.941784,-0.4346 -0.941785,-0.43461 -1.463714,-0.40892 -1.463713,-0.40893 -18.318795,-0.007 -18.318794,-0.007 -0.401518,0.22988 -0.401517,0.22988 -0.185186,0.60279 -0.185185,0.6028 -0.07732,13.0452 -0.07732,13.0452 0.109676,1.44953 0.109675,1.44952 0.333152,0.24361 0.333152,0.24361 5.587306,-0.0732 5.587307,-0.0732 z m -43.404209,-29.0578 2.2e-4,-4.44092 0.05829,2.27733 0.05829,2.27733 -0.05851,2.16359 -0.05851,2.16359 z m -0.406559,-10.08459 -0.234242,-5.088555 0.0029,-1.168655 0.0029,-1.168654 0.191548,-0.357912 0.191549,-0.357912 h 0.189021 0.18902 l -0.28805,0.411249 -0.28805,0.411249 v 1.555169 1.55517 l 0.199007,3.538471 0.199006,3.53847 -0.06023,1.11023 -0.06023,1.11023 z m 1.268431,-9.065086 0.568173,-0.923399 0.155703,-0.09623 0.155703,-0.09623 0.523423,-0.06096 0.523422,-0.06096 0.740153,-0.234845 0.740153,-0.234845 0.608286,-0.645307 0.608286,-0.645307 7.718439,0.0641 7.718439,0.0641 0.832673,0.122544 0.832672,0.122543 -8.523342,-0.09795 -8.523341,-0.09795 -0.491106,0.583646 -0.491106,0.583647 -0.682803,0.285293 -0.682803,0.285293 -0.757415,0.127313 -0.757415,0.127313 -0.555115,0.865752 -0.555115,0.865751 -0.137068,0.01005 -0.137069,0.01005 z"
         id="path15" /></g></g></svg>
